<?xml version="1.0" encoding="UTF-8" standalone="no"?>
<svg
   xmlns:dc="http://purl.org/dc/elements/1.1/"
   xmlns:cc="http://creativecommons.org/ns#"
   xmlns:rdf="http://www.w3.org/1999/02/22-rdf-syntax-ns#"
   xmlns:svg="http://www.w3.org/2000/svg"
   xmlns="http://www.w3.org/2000/svg"
   xmlns:xlink="http://www.w3.org/1999/xlink"
   width="800"
   height="300"
   viewBox="0 0 211.66667 79.374997"
   version="1.1"
   id="svg8">
  <defs
     id="defs2">
    <linearGradient
       id="linearGradient7701">
      <stop
         id="stop7697"
         offset="0"
         style="stop-color:#000000;stop-opacity:1;" />
      <stop
         id="stop7699"
         offset="1"
         style="stop-color:#000000;stop-opacity:0;" />
    </linearGradient>
    <linearGradient
       id="linearGradient1208">
      <stop
         style="stop-color:#ffbc08;stop-opacity:1"
         offset="0"
         id="stop1204" />
      <stop
         style="stop-color:#ffbc08;stop-opacity:0.2"
         offset="1"
         id="stop1206" />
    </linearGradient>
    <linearGradient
       gradientTransform="translate(0,-206.375)"
       xlink:href="#linearGradient1208"
       id="linearGradient1210"
       x1="268.84579"
       y1="150.62466"
       x2="162.02078"
       y2="256.83408"
       gradientUnits="userSpaceOnUse" />
    <linearGradient
       gradientUnits="userSpaceOnUse"
       y2="53.109364"
       x2="145.65913"
       y1="-29.866728"
       x1="271.39679"
       id="linearGradient7703"
       xlink:href="#linearGradient7701" />
    <filter
       height="1.0447326"
       y="-0.022366303"
       width="1.0331839"
       x="-0.016591962"
       id="filter7785"
       style="color-interpolation-filters:sRGB">
      <feGaussianBlur
         id="feGaussianBlur7787"
         stdDeviation="0.66148026" />
    </filter>
  </defs>
  <metadata
     id="metadata5">
    <rdf:RDF>
      <cc:Work
         rdf:about="">
        <dc:format>image/svg+xml</dc:format>
        <dc:type
           rdf:resource="http://purl.org/dc/dcmitype/StillImage" />
        <dc:title></dc:title>
      </cc:Work>
    </rdf:RDF>
  </metadata>
  <path
     id="path7789"
     d="m 156.27773,0 h 55.38893 v 79.374999 h -13.91394 l 0.64203,-3.305383 c 2.30521,-11.868101 2.98383,-23.994807 2.01716,-36.046005 l -0.22085,-2.753288 c -0.64109,-7.992188 -7.6934,-14.764986 -17.8612,-16.52745 C 172.16206,18.98041 160.62246,10.692778 158.0922,6.0708365 155.56194,1.4488949 156.27773,0 156.27773,0 Z"
     style="opacity:1;fill:#002856;fill-opacity:1;stroke:none;stroke-width:1.9775;stroke-linecap:round;stroke-linejoin:round;stroke-dashoffset:51.9998;stroke-opacity:1;paint-order:markers stroke fill" />
  <rect
     y="0"
     x="0"
     height="79.375"
     width="211.66667"
     id="rect4209"
     style="fill:#ffbc08;fill-opacity:0;stroke:none;stroke-width:1.9775;stroke-linecap:round;stroke-linejoin:round;stroke-miterlimit:4;stroke-dasharray:none;stroke-dashoffset:51.9998;stroke-opacity:1;paint-order:markers stroke fill" />
  <path
     d="m 201.15032,54.47208 4.3721,-2.14791 m -1.112,3.25991 -2.1481,-4.37191 m 10.17721,14.23569 a 2.4635563,2.4635563 0 0 1 -2.69508,-2.20789 2.4635563,2.4635563 0 0 1 2.20787,-2.69508 2.4635563,2.4635563 0 0 1 2.69509,2.20788 2.4635563,2.4635563 0 0 1 -2.20788,2.69509 M 148.40125,5.22963 147.2892,1.77905 150.73974,0.667 151.8518,4.11758 Z m -25.93636,-9.16345 6.5355,3.54602 m -5.0406,1.4948 3.5458,-6.53562 m 83.11523,7.47088 7.5261,-7.56199 m -0.7939,49.77493 -9.7336,1.89153 m 3.9209,-5.81255 1.8918,9.73359 M 202.63106,36.12301 a 1.5510439,1.5510439 0 0 1 1.36328,1.7184 1.5510439,1.5510439 0 0 1 -1.71841,1.36329 1.5510439,1.5510439 0 0 1 -1.36329,-1.71841 1.5510439,1.5510439 0 0 1 1.71842,-1.36328 m 4.44586,-21.49411 2.7181,8.70501 m -0.5337,6.26033 2.7909,3.17517 m -2.983,-0.19205 3.1751,-2.79108 m -12.64116,-3.02172 a 2.1680772,2.1680772 0 0 1 3.0653,0.0709 2.1680772,2.1680772 0 0 1 -0.0709,3.0653 2.1680772,2.1680772 0 0 1 -3.06529,-0.0709 2.1680772,2.1680772 0 0 1 0.0709,-3.0653 m -15.4625,6.641 5.20345,-0.0539 0.0539,5.20339 -5.20346,0.0539 z m 1.24406,-11.52548 -0.6809,5.87536 m 13.7106,-20.50658 -11.2737,0.19984 m 5.5367,-5.73677 0.2003,11.2737 M 179.4195,-2.77536 a 2.910157,2.910157 0 0 1 2.08154,3.55039 2.910157,2.910157 0 0 1 -3.55039,2.08154 2.910157,2.910157 0 0 1 -2.08154,-3.55039 2.910157,2.910157 0 0 1 3.55039,-2.08154 m -10.61597,9.39158 -5.4549,7.57423 m 15.5974,8.70525 -9.1864,3.17429 M 168.85181,1.08364 a 1.9618032,1.9618032 0 0 1 -2.76237,0.25817 1.9618032,1.9618032 0 0 1 -0.25818,-2.76237 1.9618032,1.9618032 0 0 1 2.76238,-0.25817 1.9618032,1.9618032 0 0 1 0.25817,2.76237"
     style="fill:none;fill-opacity:1;stroke:url(#linearGradient1210);stroke-width:1.9775;stroke-linecap:round;stroke-linejoin:round;stroke-miterlimit:4;stroke-dasharray:none;stroke-dashoffset:51.9998;stroke-opacity:1;paint-order:markers stroke fill"
     id="path4315" />
  <path
     id="path7693"
     style="fill:none;fill-opacity:1;stroke:url(#linearGradient7703);stroke-width:1.9775;stroke-linecap:round;stroke-linejoin:round;stroke-miterlimit:4;stroke-dasharray:none;stroke-dashoffset:51.9998;stroke-opacity:1;paint-order:markers stroke fill;opacity:0.23465704;filter:url(#filter7785)"
     d="m 201.67949,55.530414 4.3721,-2.14791 m -1.112,3.25991 -2.1481,-4.37191 m 10.17721,14.23569 a 2.4635563,2.4635563 0 0 1 -2.69508,-2.20789 2.4635563,2.4635563 0 0 1 2.20787,-2.69508 2.4635563,2.4635563 0 0 1 2.69509,2.20788 2.4635563,2.4635563 0 0 1 -2.20788,2.69509 m -64.03828,-60.2182306 -1.11205,-3.45058 3.45054,-1.11205 1.11206,3.45058 z m -25.93636,-9.16345 6.5355,3.54601992 m -5.0406,1.49480008 3.5458,-6.53562 m 83.11523,7.47088 7.5261,-7.56199 m -0.7939,49.7749306 -9.7336,1.89153 m 3.9209,-5.81255 1.8918,9.73359 m -10.80106,-13.94476 a 1.5510439,1.5510439 0 0 1 1.36328,1.7184 1.5510439,1.5510439 0 0 1 -1.71841,1.36329 1.5510439,1.5510439 0 0 1 -1.36329,-1.71841 1.5510439,1.5510439 0 0 1 1.71842,-1.36328 m 4.44586,-21.49411 2.7181,8.70501 m -0.5337,6.26033 2.7909,3.17517 m -2.983,-0.19205 3.1751,-2.79108 m -12.64116,-3.02172 a 2.1680772,2.1680772 0 0 1 3.0653,0.0709 2.1680772,2.1680772 0 0 1 -0.0709,3.0653 2.1680772,2.1680772 0 0 1 -3.06529,-0.0709 2.1680772,2.1680772 0 0 1 0.0709,-3.0653 m -15.4625,6.641 5.20345,-0.0539 0.0539,5.20339 -5.20346,0.0539 z m 1.24406,-11.52548 -0.6809,5.87536 m 13.7106,-20.5065806 -11.2737,0.19984 m 5.5367,-5.73677 0.2003,11.2737006 M 179.94867,-1.7170266 a 2.910157,2.910157 0 0 1 2.08154,3.55039 2.910157,2.910157 0 0 1 -3.55039,2.08154 2.910157,2.910157 0 0 1 -2.08154,-3.55039008 2.910157,2.910157 0 0 1 3.55039,-2.08153992 m -10.61597,9.39158 -5.4549,7.5742306 m 15.5974,8.70525 -9.1864,3.17429 M 169.38098,2.1419734 a 1.9618032,1.9618032 0 0 1 -2.76237,0.25817 1.9618032,1.9618032 0 0 1 -0.25818,-2.76237008 1.9618032,1.9618032 0 0 1 2.76238,-0.25816996 1.9618032,1.9618032 0 0 1 0.25817,2.76237004" />
</svg>
