<?xml version="1.0" encoding="UTF-8" standalone="no"?>
<svg
   xmlns:dc="http://purl.org/dc/elements/1.1/"
   xmlns:cc="http://creativecommons.org/ns#"
   xmlns:rdf="http://www.w3.org/1999/02/22-rdf-syntax-ns#"
   xmlns:svg="http://www.w3.org/2000/svg"
   xmlns="http://www.w3.org/2000/svg"
   id="svg8"
   version="1.1"
   viewBox="0 0 91.063583 10.668921"
   height="40.323483"
   width="344.17731">
  <defs
     id="defs2" />
  <metadata
     id="metadata5">
    <rdf:RDF>
      <cc:Work
         rdf:about="">
        <dc:format>image/svg+xml</dc:format>
        <dc:type
           rdf:resource="http://purl.org/dc/dcmitype/StillImage" />
        <dc:title></dc:title>
      </cc:Work>
    </rdf:RDF>
  </metadata>
  <g
     transform="translate(-270.45631,-144.72209)"
     id="layer1">
    <g
       id="g919">
      <path
         id="path857"
         style="font-style:normal;font-variant:normal;font-weight:100;font-stretch:normal;font-size:10.5833px;line-height:1;font-family:Aileron;-inkscape-font-specification:'Aileron Thin';letter-spacing:0px;word-spacing:0px;fill:#ffffff;fill-opacity:1;stroke:none;stroke-width:0.999999"
         d="M 178.08203 2.3242188 L 178.08203 31.923828 L 179.60156 31.923828 L 179.60156 20.244141 C 179.60156 14.204191 183.00266 11.603516 186.72266 11.603516 C 190.52263 11.563453 192.32164 13.843059 192.68164 17.123047 C 192.80145 18.203047 192.8418 19.123425 192.8418 20.523438 L 192.8418 31.923828 L 194.36133 31.923828 L 194.36133 20.164062 C 194.36133 18.444075 194.32098 17.763594 194.20117 16.683594 C 193.80115 12.683606 191.2428 10.283203 186.88281 10.283203 C 184.40284 10.283203 182.16249 11.164088 180.5625 13.164062 L 179.60156 15.363281 L 179.60156 2.3242188 L 178.08203 2.3242188 z M 63.242188 2.5234375 L 63.242188 15.123047 L 62.042969 12.683594 C 60.482969 11.003594 58.602097 10.283203 56.162109 10.283203 C 51.002147 10.283203 46.402344 14.044478 46.402344 21.564453 C 46.402344 27.924453 49.962591 32.484375 55.642578 32.484375 C 58.322566 32.484375 60.281966 31.763712 62.001953 29.84375 L 63.242188 27.443359 L 63.242188 31.923828 L 64.761719 31.923828 L 64.761719 2.5234375 L 63.242188 2.5234375 z M 10.519531 4.3242188 L 0 31.923828 L 1.640625 31.923828 L 5.5195312 21.404297 L 17.320312 21.404297 L 21.279297 31.923828 L 22.919922 31.923828 L 12.519531 4.3242188 L 10.519531 4.3242188 z M 154.02148 4.3242188 L 154.02148 5.6035156 L 164.38281 5.6035156 L 164.38281 31.923828 L 165.90234 31.923828 L 165.90234 5.6035156 L 176.30273 5.6035156 L 176.30273 4.3242188 L 154.02148 4.3242188 z M 112.2793 5.2832031 C 111.63931 5.2832031 111.11914 5.8033342 111.11914 6.4433594 C 111.11914 7.0833468 111.63931 7.6035156 112.2793 7.6035156 C 112.91928 7.6035156 113.43945 7.0833468 113.43945 6.4433594 C 113.43945 5.8033342 112.91928 5.2832031 112.2793 5.2832031 z M 11.480469 5.5644531 L 16.839844 20.083984 L 6.0390625 20.083984 L 11.480469 5.5644531 z M 119.62305 6.5234375 L 119.62305 11.003906 L 117.02344 11.003906 L 117.02344 12.203125 L 119.62305 12.203125 L 119.62305 26.443359 C 119.62305 27.643359 119.623 28.364115 119.70312 29.244141 C 119.863 31.284141 120.94345 32.203125 123.02344 32.203125 C 123.78342 32.203125 124.62368 32.16411 125.26367 32.083984 L 125.26367 30.882812 C 122.26371 31.322825 121.34358 30.722679 121.18359 28.642578 C 121.14353 28.082566 121.14258 27.56345 121.14258 26.523438 L 121.14258 12.203125 L 125.22266 12.203125 L 125.22266 11.003906 L 121.14258 11.003906 L 121.14258 6.5234375 L 119.62305 6.5234375 z M 77.941406 10.283203 C 73.661431 10.283203 70.582722 13.042747 70.302734 16.802734 L 71.863281 16.802734 C 72.303256 13.12276 75.021419 11.564453 77.941406 11.564453 C 81.261381 11.564453 83.101797 13.163931 83.341797 16.003906 C 83.421923 16.883931 83.421875 17.723594 83.421875 18.683594 L 83.421875 19.644531 L 82.0625 19.644531 C 75.062513 19.644531 69.462891 21.842681 69.462891 26.722656 C 69.462891 30.522631 72.102538 32.484375 76.0625 32.484375 C 78.7025 32.484375 81.022891 31.483359 82.462891 29.443359 L 83.462891 27.324219 L 83.742188 31.923828 L 85.302734 31.923828 C 85.062734 29.243841 84.943359 27.684362 84.943359 25.484375 L 84.943359 18.603516 C 84.943359 17.563503 84.941454 16.883763 84.861328 15.84375 C 84.541202 12.323763 82.301394 10.283203 77.941406 10.283203 z M 98.779297 10.283203 C 93.499297 10.283203 89.058594 14.484322 89.058594 21.404297 C 89.058594 28.564272 93.217981 32.484375 98.417969 32.484375 C 102.81794 32.484375 106.25865 29.923412 107.13867 25.523438 L 105.57812 25.523438 C 104.8181 29.203412 101.93905 31.203125 98.539062 31.203125 C 94.539075 31.203125 90.738281 28.04405 90.738281 21.164062 C 90.738281 14.644075 94.899244 11.523438 98.699219 11.523438 C 102.61919 11.523438 105.0593 13.803438 105.7793 17.523438 L 107.33789 17.523438 C 106.6979 13.203438 103.45926 10.283203 98.779297 10.283203 z M 207.83594 10.283203 C 202.47596 10.283203 198.27734 14.644244 198.27734 21.324219 C 198.27734 28.724194 202.43656 32.484375 207.47656 32.484375 C 211.55656 32.484375 215.23647 30.123256 216.39648 25.363281 L 214.83594 25.363281 C 213.79592 29.363269 210.75662 31.203125 207.55664 31.203125 C 203.87663 31.203125 200.11695 28.642734 199.87695 21.802734 L 216.67773 21.802734 C 216.7178 21.282747 216.7168 21.002747 216.7168 20.802734 C 216.7168 15.32276 213.79591 10.283203 207.83594 10.283203 z M 228.92969 10.283203 C 226.80967 10.283203 224.97132 11.044544 223.61133 12.644531 L 222.57031 14.962891 L 222.57031 10.84375 L 221.05078 10.84375 L 221.05078 31.923828 L 222.57031 31.923828 L 222.57031 20.244141 C 222.57031 14.124178 225.29033 11.564453 228.57031 11.564453 C 231.77029 11.564453 233.36954 13.682903 233.76953 16.962891 C 233.88934 18.042891 233.92969 19.003528 233.92969 20.603516 L 233.92969 31.923828 L 235.45117 31.923828 L 235.45117 20.244141 C 235.45117 14.124178 238.1312 11.564453 241.45117 11.564453 C 244.65118 11.564453 246.24938 13.682903 246.60938 16.962891 C 246.72956 18.042891 246.76953 19.003528 246.76953 20.603516 L 246.76953 31.923828 L 248.29102 31.923828 L 248.29102 19.923828 C 248.29102 18.203841 248.25067 17.523359 248.13086 16.443359 C 247.69088 12.603359 245.56951 10.283203 241.76953 10.283203 C 239.64952 10.283203 237.85026 11.044544 236.49023 12.644531 L 235.08984 15.363281 C 234.36984 12.163306 232.32967 10.283203 228.92969 10.283203 z M 261.74219 10.283203 C 256.38221 10.283203 252.18359 14.644244 252.18359 21.324219 C 252.18359 28.724194 256.34285 32.484375 261.38281 32.484375 C 265.46281 32.484375 269.14272 30.123256 270.30273 25.363281 L 268.74219 25.363281 C 267.70217 29.363269 264.66287 31.203125 261.46289 31.203125 C 257.78292 31.203125 254.0232 28.642734 253.7832 21.802734 L 270.58203 21.802734 C 270.62209 21.282747 270.62305 21.002747 270.62305 20.802734 C 270.62305 15.32276 267.70216 10.283203 261.74219 10.283203 z M 280.79688 10.283203 C 276.83688 10.283203 274.07617 12.683997 274.07617 16.083984 C 274.07617 19.683984 276.99749 21.083828 280.4375 21.923828 C 285.11746 23.043853 286.75586 24.243803 286.75586 26.923828 C 286.75586 29.723816 284.19624 31.203125 281.15625 31.203125 C 277.91625 31.203125 275.31577 29.763594 274.67578 25.683594 L 273.11719 25.683594 C 273.63721 30.483594 276.9971 32.484375 281.03711 32.484375 C 285.23707 32.484375 288.31641 30.363737 288.31641 26.84375 C 288.31641 23.283775 285.91616 21.684441 281.07617 20.564453 C 277.83617 19.804466 275.63672 18.722891 275.63672 15.962891 C 275.63672 13.202891 277.91681 11.564453 280.7168 11.564453 C 283.91677 11.564453 285.75667 13.244544 286.55664 16.644531 L 288.11719 16.644531 C 287.55717 13.044531 285.27686 10.283203 280.79688 10.283203 z M 26.003906 10.84375 L 26.003906 22.763672 C 26.003906 24.483659 26.044251 25.203203 26.164062 26.283203 C 26.644062 30.083216 29.2044 32.484375 33.484375 32.484375 C 35.964388 32.484375 38.16276 31.563503 39.802734 29.603516 L 40.763672 27.404297 L 40.763672 31.923828 L 42.283203 31.923828 L 42.283203 10.84375 L 40.763672 10.84375 L 40.763672 22.523438 C 40.763672 28.523437 37.403594 31.164062 33.683594 31.164062 C 29.963594 31.164062 28.083619 28.963581 27.683594 25.683594 C 27.563783 24.603594 27.523438 23.643294 27.523438 22.363281 L 27.523438 10.84375 L 26.003906 10.84375 z M 111.51953 10.84375 L 111.51953 31.923828 L 113.03906 31.923828 L 113.03906 10.84375 L 111.51953 10.84375 z M 126.61719 10.84375 L 134.9375 32.443359 L 134.33789 33.962891 C 132.69792 37.962878 131.21803 39.003906 129.49805 39.003906 C 129.01805 39.003906 128.53757 39.003001 128.01758 38.882812 L 128.01758 40.203125 C 128.45759 40.283251 128.89805 40.322266 129.49805 40.322266 C 132.09806 40.322266 133.93806 39.043294 136.49805 32.363281 L 144.77734 10.84375 L 143.05664 10.84375 L 135.69727 30.722656 L 128.33789 10.84375 L 126.61719 10.84375 z M 56.162109 11.564453 C 59.402109 11.564453 63.242188 13.603097 63.242188 20.123047 L 63.242188 22.164062 C 63.242188 28.884062 59.802722 31.203125 55.802734 31.203125 C 50.762772 31.203125 48.082031 26.683269 48.082031 21.363281 C 48.082031 15.443294 51.442122 11.564453 56.162109 11.564453 z M 207.75586 11.564453 C 211.31587 11.564453 214.91625 13.964425 215.15625 20.484375 L 199.87695 20.484375 C 200.11695 14.444425 204.07588 11.564453 207.75586 11.564453 z M 261.66211 11.564453 C 265.22208 11.564453 268.8225 13.964425 269.0625 20.484375 L 253.7832 20.484375 C 254.0232 14.444425 257.9821 11.564453 261.66211 11.564453 z M 81.148438 20.869141 C 81.899841 20.854843 82.661878 20.87383 83.421875 20.923828 L 83.421875 23.642578 C 83.421875 27.72254 80.621875 31.203125 76.421875 31.203125 C 72.901888 31.203125 71.142578 29.482591 71.142578 26.642578 C 71.142578 22.6876 75.888615 20.969224 81.148438 20.869141 z "
         transform="matrix(0.26458333,0,0,0.26458333,270.45631,144.72209)" />
      <path
         id="rect852-2"
         style="fill:#ffffff;fill-opacity:1;stroke-width:99.9999;stroke-linecap:square;stroke-linejoin:round;paint-order:markers stroke fill"
         d="M 304.38477 0 C 299.78946 0 296.08984 3.6996211 296.08984 8.2949219 C 296.08984 12.890223 299.78946 16.589844 304.38477 16.589844 L 335.88281 16.589844 C 340.47811 16.589844 344.17773 12.890223 344.17773 8.2949219 C 344.17773 3.6996211 340.47811 0 335.88281 0 L 304.38477 0 z M 334.13281 3.328125 C 337.10745 3.328125 339.01562 5.2234132 339.01562 8.2949219 C 339.01563 11.352597 337.10745 13.261719 334.13281 13.261719 C 331.15814 13.261719 329.24805 11.352597 329.24805 8.2949219 C 329.24805 5.2234132 331.15814 3.328125 334.13281 3.328125 z M 302.42383 3.5214844 L 306.21484 3.5214844 C 306.80978 3.5214844 307.19709 3.5342847 307.70898 3.5898438 C 309.09256 3.7558405 310.29688 4.4351099 310.29688 6.1230469 C 310.29688 7.3267508 309.64595 8.1285358 308.37305 8.5019531 C 309.36922 8.8616886 309.72886 9.5957686 309.86719 10.744141 C 309.99169 11.823309 310.21252 12.503044 310.58594 13.070312 L 307.875 13.070312 C 307.65375 12.39238 307.51479 11.83809 307.43164 11.160156 C 307.30711 10.108654 306.89229 9.5005592 306.25586 9.4589844 C 305.97916 9.4438663 305.74346 9.4433594 305.4668 9.4433594 L 304.91406 9.4433594 L 304.91406 13.068359 L 302.42383 13.068359 L 302.42383 3.5214844 z M 311.85352 3.5214844 L 319.03516 3.5214844 L 319.03516 5.4589844 L 314.3457 5.4589844 L 314.3457 7.3125 L 318.75781 7.3125 L 318.75781 9.25 L 314.3457 9.25 L 314.3457 11.130859 L 319.17383 11.130859 L 319.17383 13.068359 L 311.85352 13.068359 L 311.85352 3.5214844 z M 320.69141 3.5214844 L 324.28711 3.5214844 C 324.88204 3.5214844 325.2713 3.5342847 325.7832 3.5898438 C 327.16677 3.7558405 328.42578 4.7394182 328.42578 6.6210938 C 328.42578 8.5027314 327.16677 9.4844694 325.7832 9.6503906 C 325.2713 9.7044379 324.88204 9.7207031 324.28711 9.7207031 L 323.18164 9.7207031 L 323.18164 13.068359 L 320.69141 13.068359 L 320.69141 3.5214844 z M 334.13281 5.1542969 C 332.69391 5.1542969 331.79492 6.2610825 331.79492 8.2949219 C 331.79492 10.314928 332.69391 11.435547 334.13281 11.435547 C 335.57172 11.435547 336.4707 10.314928 336.4707 8.2949219 C 336.4707 6.2610825 335.57172 5.1542969 334.13281 5.1542969 z M 304.91406 5.4589844 L 304.91406 7.6445312 L 305.8125 7.6464844 C 306.07537 7.6464844 306.29666 7.6479306 306.47656 7.6328125 C 307.113 7.5774802 307.69531 7.3552037 307.69531 6.5527344 C 307.69531 5.7502273 307.18334 5.5278374 306.54688 5.4726562 C 306.36705 5.4575382 306.14549 5.4589844 305.88281 5.4589844 L 304.91406 5.4589844 z M 323.18164 5.4589844 L 323.18164 7.7832031 L 324.15039 7.7832031 C 324.41329 7.7832031 324.63455 7.7846494 324.81445 7.7695312 L 324.81445 7.7714844 C 325.45104 7.7161521 325.82422 7.3424799 325.82422 6.6230469 C 325.82422 5.903576 325.45089 5.5297905 324.81445 5.4746094 C 324.63459 5.4594913 324.41345 5.4589844 324.15039 5.4589844 L 323.18164 5.4589844 z "
         transform="matrix(0.26458333,0,0,0.26458333,270.45631,144.72209)" />
    </g>
  </g>
</svg>
