<?xml version="1.0" encoding="UTF-8" standalone="no"?>
<svg
   xmlns:dc="http://purl.org/dc/elements/1.1/"
   xmlns:cc="http://creativecommons.org/ns#"
   xmlns:rdf="http://www.w3.org/1999/02/22-rdf-syntax-ns#"
   xmlns:svg="http://www.w3.org/2000/svg"
   xmlns="http://www.w3.org/2000/svg"
   xmlns:sodipodi="http://sodipodi.sourceforge.net/DTD/sodipodi-0.dtd"
   xmlns:inkscape="http://www.inkscape.org/namespaces/inkscape"
   width="153.00391"
   height="152.99609"
   viewBox="0 0 40.482284 40.480218"
   version="1.1"
   id="svg8"
   inkscape:version="1.0.2-2 (e86c870879, 2021-01-15)"
   sodipodi:docname="authrepo.svg">
  <defs
     id="defs2" />
  <sodipodi:namedview
     id="base"
     pagecolor="#1a1a1a"
     bordercolor="#666666"
     borderopacity="1.0"
     inkscape:pageopacity="0"
     inkscape:pageshadow="2"
     inkscape:zoom="7.9195959"
     inkscape:cx="89.851417"
     inkscape:cy="77.807457"
     inkscape:document-units="px"
     inkscape:current-layer="layer1"
     inkscape:document-rotation="0"
     showgrid="false"
     borderlayer="true"
     inkscape:showpageshadow="false"
     inkscape:pagecheckerboard="false"
     width="1920mm"
     units="px"
     inkscape:snap-bbox="true"
     inkscape:bbox-paths="true"
     inkscape:bbox-nodes="true"
     inkscape:snap-bbox-edge-midpoints="true"
     inkscape:snap-bbox-midpoints="true"
     inkscape:object-paths="true"
     inkscape:snap-intersection-paths="true"
     inkscape:snap-smooth-nodes="true"
     inkscape:snap-midpoints="true"
     inkscape:snap-others="true"
     inkscape:snap-object-midpoints="true"
     inkscape:snap-center="true"
     inkscape:snap-text-baseline="true"
     inkscape:snap-page="true"
     inkscape:snap-grids="false"
     fit-margin-top="0"
     fit-margin-left="0"
     fit-margin-right="0"
     fit-margin-bottom="0"
     inkscape:window-width="3840"
     inkscape:window-height="2126"
     inkscape:window-x="1609"
     inkscape:window-y="-11"
     inkscape:window-maximized="1" />
  <metadata
     id="metadata5">
    <rdf:RDF>
      <cc:Work
         rdf:about="">
        <dc:format>image/svg+xml</dc:format>
        <dc:type
           rdf:resource="http://purl.org/dc/dcmitype/StillImage" />
        <dc:title></dc:title>
      </cc:Work>
    </rdf:RDF>
  </metadata>
  <g
     inkscape:label="Layer 1"
     inkscape:groupmode="layer"
     id="layer1"
     transform="translate(-99.955141,-118.09977)">
    <path
       id="circle853"
       style="color:#000000;font-style:normal;font-variant:normal;font-weight:normal;font-stretch:normal;font-size:medium;line-height:normal;font-family:sans-serif;font-variant-ligatures:normal;font-variant-position:normal;font-variant-caps:normal;font-variant-numeric:normal;font-variant-alternates:normal;font-variant-east-asian:normal;font-feature-settings:normal;font-variation-settings:normal;text-indent:0;text-align:start;text-decoration:none;text-decoration-line:none;text-decoration-style:solid;text-decoration-color:#000000;letter-spacing:normal;word-spacing:normal;text-transform:none;writing-mode:lr-tb;direction:ltr;text-orientation:mixed;dominant-baseline:auto;baseline-shift:baseline;text-anchor:start;white-space:normal;shape-padding:0;shape-margin:0;inline-size:0;clip-rule:nonzero;display:inline;overflow:visible;visibility:visible;opacity:1;isolation:auto;mix-blend-mode:normal;color-interpolation:sRGB;color-interpolation-filters:linearRGB;solid-color:#000000;solid-opacity:1;vector-effect:none;fill:#ffffff;fill-opacity:1;fill-rule:nonzero;stroke:none;stroke-width:3.77953;stroke-linecap:square;stroke-linejoin:miter;stroke-miterlimit:4;stroke-dasharray:none;stroke-dashoffset:0;stroke-opacity:1;paint-order:fill markers stroke;color-rendering:auto;image-rendering:auto;shape-rendering:auto;text-rendering:auto;enable-background:accumulate;stop-color:#000000;stop-opacity:1"
       d="m 454.28906,446.36133 c -42.24389,0 -76.50585,34.25419 -76.50586,76.49805 -1e-5,42.24389 34.26197,76.49804 76.50586,76.49804 42.24386,0 76.49805,-34.25415 76.49805,-76.49804 0,-42.24382 -34.25423,-76.49805 -76.49805,-76.49805 z m 0,0.99609 c 41.70338,0 75.49411,33.79857 75.49414,75.50196 0,41.70345 -33.79072,75.49414 -75.49414,75.49414 -41.70346,3e-5 -75.50195,-33.79069 -75.50195,-75.49414 4e-5,-41.70342 33.79849,-75.50196 75.50195,-75.50196 z m 50.92774,63.21094 c -1.11999,0 -2.10068,0.24563 -2.94336,0.73633 -0.83199,0.49066 -1.48875,1.17417 -1.96875,2.04883 -0.46927,0.864 -0.70313,1.86647 -0.70313,3.00781 0,1.1413 0.23382,2.14874 0.70313,3.02344 0.48,0.864 1.13676,1.54254 1.96875,2.0332 0.84268,0.49069 1.82337,0.73437 2.94336,0.73437 1.10933,0 2.08704,-0.24371 2.92968,-0.73437 0.84269,-0.49066 1.4975,-1.1692 1.9668,-2.0332 0.46931,-0.8747 0.70508,-1.88214 0.70508,-3.02344 0,-1.14134 -0.23574,-2.14381 -0.70508,-3.00781 -0.4693,-0.87466 -1.12411,-1.55817 -1.9668,-2.04883 -0.84264,-0.49074 -1.82035,-0.73633 -2.92968,-0.73633 z m -31.17578,0.19336 v 11.19922 h 2.04882 v -4.41602 h 1.69532 l 2.08007,4.41602 h 2.35157 l -2.31836,-4.6875 c 0.75734,-0.25599 1.31219,-0.66708 1.66406,-1.23242 0.36257,-0.56531 0.54297,-1.1884 0.54297,-1.8711 0,-0.62933 -0.14364,-1.20088 -0.43164,-1.71289 -0.288,-0.52267 -0.72584,-0.93384 -1.3125,-1.23242 -0.576,-0.30943 -1.31102,-0.46289 -2.20703,-0.46289 z m 8.96875,0 v 11.19922 h 7.3125 v -1.64844 h -5.26368 v -3.23047 h 4.78321 v -1.60156 h -4.78321 v -3.07227 h 5.26368 v -1.64648 z m 8.24804,0 v 11.19922 h 2.04883 V 517.625 h 2.0957 c 0.91733,0 1.6692,-0.15335 2.25586,-0.46289 0.5867,-0.32001 1.01751,-0.73603 1.29492,-1.24805 0.27731,-0.52267 0.41602,-1.09422 0.41602,-1.71289 0,-0.65064 -0.14364,-1.23709 -0.43164,-1.75976 -0.288,-0.52267 -0.72584,-0.93384 -1.3125,-1.23243 -0.5867,-0.29873 -1.32664,-0.44726 -2.22266,-0.44726 z m -34.67969,0.95898 v 23.04102 h 4.09571 v -8.19336 c 0,-1.45066 0.37249,-2.57995 1.11914,-3.39063 0.768,-0.81067 1.72886,-1.21679 2.88086,-1.21679 1.17335,0 2.02722,0.36256 2.56055,1.08789 0.5546,0.72533 0.83203,1.7714 0.83203,3.13672 v 8.57617 h 4.0625 v -8.96094 c 0,-2.3893 -0.54285,-4.20211 -1.63086,-5.43945 -1.06666,-1.23734 -2.58225,-1.85547 -4.54493,-1.85547 -1.17335,0 -2.21743,0.25556 -3.13476,0.76758 -0.89601,0.49069 -1.6112,1.17221 -2.14453,2.04687 v -9.59961 z m -50.63281,0.64063 -8.1914,22.40039 h 4.28711 l 1.82421,-5.1836 h 8.73633 l 1.79297,5.1836 h 4.35156 l -8.1914,-22.40039 z m 31.50391,0 v 3.29492 h 6.5293 v 19.10547 h 4.0957 v -19.10547 h 6.55859 v -3.29492 z m 67.76758,0.0469 c 1.06666,0 1.91559,0.35263 2.54492,1.05664 0.63987,0.70402 0.95898,1.66984 0.95898,2.89649 0,1.22664 -0.31899,2.19247 -0.95898,2.89648 -0.62933,0.70413 -1.47826,1.05469 -2.54492,1.05469 -1.0667,0 -1.91861,-0.35067 -2.5586,-1.05469 -0.63987,-0.70401 -0.96093,-1.66984 -0.96093,-2.89648 0,-1.22665 0.32095,-2.19247 0.96093,-2.89649 0.63999,-0.70412 1.4919,-1.05664 2.5586,-1.05664 z m -11.91016,0.0176 h 1.9668 c 0.71467,0 1.22756,0.15839 1.53711,0.47852 0.32012,0.30935 0.47851,0.74223 0.47851,1.29687 0,0.54399 -0.15839,0.97675 -0.47851,1.29688 -0.30936,0.30939 -0.82244,0.46289 -1.53711,0.46289 h -1.9668 z m -17.2168,0.0469 h 1.91993 c 0.70401,0 1.20998,0.16034 1.51953,0.48046 0.32012,0.32002 0.48047,0.74597 0.48047,1.2793 0,0.54399 -0.16035,0.98179 -0.48047,1.3125 -0.32002,0.33082 -0.82121,0.4961 -1.50391,0.4961 h -1.93555 z m -67.87109,4.59179 3.26367,9.3125 h -6.49609 z m 11.73437,1.82422 v 8.96094 c 0,2.38934 0.53487,4.20215 1.60157,5.43945 1.08801,1.23734 2.62343,1.85547 4.60742,1.85547 1.2373,0 2.31509,-0.27738 3.23242,-0.83203 0.93865,-0.55468 1.65188,-1.30159 2.14258,-2.24023 l 0.32031,2.68945 h 3.61719 v -15.87305 h -4.09766 v 8.19336 c 0,1.45066 -0.37249,2.57996 -1.11914,3.39063 -0.72533,0.81067 -1.65255,1.21679 -2.7832,1.21679 -1.19467,0 -2.07032,-0.36256 -2.625,-1.08789 -0.55457,-0.72533 -0.83203,-1.77136 -0.83203,-3.13672 v -8.57617 z"
       transform="scale(0.26458334)" />
  </g>
</svg>
